<mxfile host="Electron" agent="Mozilla/5.0 (X11; Linux x86_64) AppleWebKit/537.36 (KHTML, like Gecko) draw.io/26.0.4 Chrome/128.0.6613.186 Electron/32.2.5 Safari/537.36" version="26.0.4">
  <diagram id="R2lEEEUBdFMjLlhIrx00" name="Page-1">
    <mxGraphModel dx="989" dy="600" grid="1" gridSize="10" guides="1" tooltips="1" connect="1" arrows="1" fold="1" page="1" pageScale="1" pageWidth="850" pageHeight="1100" math="0" shadow="0" extFonts="Permanent Marker^https://fonts.googleapis.com/css?family=Permanent+Marker">
      <root>
        <mxCell id="0" />
        <mxCell id="1" parent="0" />
        <mxCell id="PLVyx06QW_ByIb6izQH0-1" value="account" style="swimlane;html=1;fontStyle=0;childLayout=stackLayout;horizontal=1;startSize=26;horizontalStack=0;resizeParent=1;resizeLast=0;collapsible=1;marginBottom=0;swimlaneFillColor=#ffffff;align=center;rounded=0;shadow=0;comic=0;labelBackgroundColor=none;strokeWidth=1;fontFamily=Verdana;fontSize=14;swimlaneLine=1;fillColor=#F2CC8F;strokeColor=#E07A5F;fontColor=#393C56;" parent="1" vertex="1">
          <mxGeometry x="20" y="718" width="130" height="222" as="geometry" />
        </mxCell>
        <mxCell id="PLVyx06QW_ByIb6izQH0-2" value="account_ID" style="shape=partialRectangle;top=0;left=0;right=0;bottom=1;html=1;align=left;verticalAlign=middle;fillColor=none;spacingLeft=34;spacingRight=4;whiteSpace=wrap;overflow=hidden;rotatable=0;points=[[0,0.5],[1,0.5]];portConstraint=eastwest;dropTarget=0;fontStyle=5;labelBackgroundColor=none;strokeColor=#E07A5F;fontColor=#393C56;" parent="PLVyx06QW_ByIb6izQH0-1" vertex="1">
          <mxGeometry y="26" width="130" height="30" as="geometry" />
        </mxCell>
        <mxCell id="PLVyx06QW_ByIb6izQH0-3" value="PK" style="shape=partialRectangle;top=0;left=0;bottom=0;html=1;fillColor=none;align=left;verticalAlign=middle;spacingLeft=4;spacingRight=4;whiteSpace=wrap;overflow=hidden;rotatable=0;points=[];portConstraint=eastwest;part=1;labelBackgroundColor=none;strokeColor=#E07A5F;fontColor=#393C56;" parent="PLVyx06QW_ByIb6izQH0-2" vertex="1" connectable="0">
          <mxGeometry width="30" height="30" as="geometry" />
        </mxCell>
        <mxCell id="PLVyx06QW_ByIb6izQH0-4" value="customer_ID" style="shape=partialRectangle;top=0;left=0;right=0;bottom=1;html=1;align=left;verticalAlign=middle;fillColor=none;spacingLeft=34;spacingRight=4;whiteSpace=wrap;overflow=hidden;rotatable=0;points=[[0,0.5],[1,0.5]];portConstraint=eastwest;dropTarget=0;fontStyle=1;labelBackgroundColor=none;strokeColor=#E07A5F;fontColor=#393C56;" parent="PLVyx06QW_ByIb6izQH0-1" vertex="1">
          <mxGeometry y="56" width="130" height="30" as="geometry" />
        </mxCell>
        <mxCell id="PLVyx06QW_ByIb6izQH0-5" value="FK" style="shape=partialRectangle;top=0;left=0;bottom=0;html=1;fillColor=none;align=left;verticalAlign=middle;spacingLeft=4;spacingRight=4;whiteSpace=wrap;overflow=hidden;rotatable=0;points=[];portConstraint=eastwest;part=1;labelBackgroundColor=none;strokeColor=#E07A5F;fontColor=#393C56;" parent="PLVyx06QW_ByIb6izQH0-4" vertex="1" connectable="0">
          <mxGeometry width="30" height="30" as="geometry" />
        </mxCell>
        <mxCell id="PLVyx06QW_ByIb6izQH0-8" value="account_type" style="shape=partialRectangle;top=0;left=0;right=0;bottom=0;html=1;align=left;verticalAlign=top;fillColor=none;spacingLeft=34;spacingRight=4;whiteSpace=wrap;overflow=hidden;rotatable=0;points=[[0,0.5],[1,0.5]];portConstraint=eastwest;dropTarget=0;labelBackgroundColor=none;strokeColor=#E07A5F;fontColor=#393C56;" parent="PLVyx06QW_ByIb6izQH0-1" vertex="1">
          <mxGeometry y="86" width="130" height="26" as="geometry" />
        </mxCell>
        <mxCell id="PLVyx06QW_ByIb6izQH0-9" value="" style="shape=partialRectangle;top=0;left=0;bottom=0;html=1;fillColor=none;align=left;verticalAlign=top;spacingLeft=4;spacingRight=4;whiteSpace=wrap;overflow=hidden;rotatable=0;points=[];portConstraint=eastwest;part=1;labelBackgroundColor=none;strokeColor=#E07A5F;fontColor=#393C56;" parent="PLVyx06QW_ByIb6izQH0-8" vertex="1" connectable="0">
          <mxGeometry width="30" height="26" as="geometry" />
        </mxCell>
        <mxCell id="PLVyx06QW_ByIb6izQH0-10" value="account_balance&lt;span style=&quot;white-space: pre;&quot;&gt;&#x9;&lt;/span&gt;" style="shape=partialRectangle;top=0;left=0;right=0;bottom=0;html=1;align=left;verticalAlign=top;fillColor=none;spacingLeft=34;spacingRight=4;whiteSpace=wrap;overflow=hidden;rotatable=0;points=[[0,0.5],[1,0.5]];portConstraint=eastwest;dropTarget=0;labelBackgroundColor=none;strokeColor=#E07A5F;fontColor=#393C56;" parent="PLVyx06QW_ByIb6izQH0-1" vertex="1">
          <mxGeometry y="112" width="130" height="26" as="geometry" />
        </mxCell>
        <mxCell id="PLVyx06QW_ByIb6izQH0-11" value="" style="shape=partialRectangle;top=0;left=0;bottom=0;html=1;fillColor=none;align=left;verticalAlign=top;spacingLeft=4;spacingRight=4;whiteSpace=wrap;overflow=hidden;rotatable=0;points=[];portConstraint=eastwest;part=1;labelBackgroundColor=none;strokeColor=#E07A5F;fontColor=#393C56;" parent="PLVyx06QW_ByIb6izQH0-10" vertex="1" connectable="0">
          <mxGeometry width="30" height="26" as="geometry" />
        </mxCell>
        <mxCell id="PLVyx06QW_ByIb6izQH0-12" value="account_status" style="shape=partialRectangle;top=0;left=0;right=0;bottom=0;html=1;align=left;verticalAlign=top;fillColor=none;spacingLeft=34;spacingRight=4;whiteSpace=wrap;overflow=hidden;rotatable=0;points=[[0,0.5],[1,0.5]];portConstraint=eastwest;dropTarget=0;labelBackgroundColor=none;strokeColor=#E07A5F;fontColor=#393C56;" parent="PLVyx06QW_ByIb6izQH0-1" vertex="1">
          <mxGeometry y="138" width="130" height="26" as="geometry" />
        </mxCell>
        <mxCell id="PLVyx06QW_ByIb6izQH0-13" value="" style="shape=partialRectangle;top=0;left=0;bottom=0;html=1;fillColor=none;align=left;verticalAlign=top;spacingLeft=4;spacingRight=4;whiteSpace=wrap;overflow=hidden;rotatable=0;points=[];portConstraint=eastwest;part=1;labelBackgroundColor=none;strokeColor=#E07A5F;fontColor=#393C56;" parent="PLVyx06QW_ByIb6izQH0-12" vertex="1" connectable="0">
          <mxGeometry width="30" height="26" as="geometry" />
        </mxCell>
        <mxCell id="PLVyx06QW_ByIb6izQH0-14" value="opened_date" style="shape=partialRectangle;top=0;left=0;right=0;bottom=0;html=1;align=left;verticalAlign=top;fillColor=none;spacingLeft=34;spacingRight=4;whiteSpace=wrap;overflow=hidden;rotatable=0;points=[[0,0.5],[1,0.5]];portConstraint=eastwest;dropTarget=0;labelBackgroundColor=none;strokeColor=#E07A5F;fontColor=#393C56;" parent="PLVyx06QW_ByIb6izQH0-1" vertex="1">
          <mxGeometry y="164" width="130" height="26" as="geometry" />
        </mxCell>
        <mxCell id="PLVyx06QW_ByIb6izQH0-15" value="" style="shape=partialRectangle;top=0;left=0;bottom=0;html=1;fillColor=none;align=left;verticalAlign=top;spacingLeft=4;spacingRight=4;whiteSpace=wrap;overflow=hidden;rotatable=0;points=[];portConstraint=eastwest;part=1;labelBackgroundColor=none;strokeColor=#E07A5F;fontColor=#393C56;" parent="PLVyx06QW_ByIb6izQH0-14" vertex="1" connectable="0">
          <mxGeometry width="30" height="26" as="geometry" />
        </mxCell>
        <mxCell id="PLVyx06QW_ByIb6izQH0-16" value="closed_date" style="shape=partialRectangle;top=0;left=0;right=0;bottom=0;html=1;align=left;verticalAlign=top;fillColor=none;spacingLeft=34;spacingRight=4;whiteSpace=wrap;overflow=hidden;rotatable=0;points=[[0,0.5],[1,0.5]];portConstraint=eastwest;dropTarget=0;labelBackgroundColor=none;strokeColor=#E07A5F;fontColor=#393C56;" parent="PLVyx06QW_ByIb6izQH0-1" vertex="1">
          <mxGeometry y="190" width="130" height="30" as="geometry" />
        </mxCell>
        <mxCell id="PLVyx06QW_ByIb6izQH0-17" value="" style="shape=partialRectangle;top=0;left=0;bottom=0;html=1;fillColor=none;align=left;verticalAlign=top;spacingLeft=4;spacingRight=4;whiteSpace=wrap;overflow=hidden;rotatable=0;points=[];portConstraint=eastwest;part=1;labelBackgroundColor=none;strokeColor=#E07A5F;fontColor=#393C56;" parent="PLVyx06QW_ByIb6izQH0-16" vertex="1" connectable="0">
          <mxGeometry width="30" height="30" as="geometry" />
        </mxCell>
        <mxCell id="PLVyx06QW_ByIb6izQH0-18" value="" style="shape=partialRectangle;top=0;left=0;right=0;bottom=0;html=1;align=left;verticalAlign=top;fillColor=none;spacingLeft=34;spacingRight=4;whiteSpace=wrap;overflow=hidden;rotatable=0;points=[[0,0.5],[1,0.5]];portConstraint=eastwest;dropTarget=0;labelBackgroundColor=none;strokeColor=#E07A5F;fontColor=#393C56;" parent="PLVyx06QW_ByIb6izQH0-1" vertex="1">
          <mxGeometry y="220" width="130" height="2" as="geometry" />
        </mxCell>
        <mxCell id="PLVyx06QW_ByIb6izQH0-19" value="" style="shape=partialRectangle;top=0;left=0;bottom=0;html=1;fillColor=none;align=left;verticalAlign=top;spacingLeft=4;spacingRight=4;whiteSpace=wrap;overflow=hidden;rotatable=0;points=[];portConstraint=eastwest;part=1;labelBackgroundColor=none;strokeColor=#E07A5F;fontColor=#393C56;" parent="PLVyx06QW_ByIb6izQH0-18" vertex="1" connectable="0">
          <mxGeometry width="30" height="2" as="geometry" />
        </mxCell>
        <mxCell id="PLVyx06QW_ByIb6izQH0-20" value="Person" style="swimlane;html=1;fontStyle=0;childLayout=stackLayout;horizontal=1;startSize=26;horizontalStack=0;resizeParent=1;resizeLast=0;collapsible=1;marginBottom=0;swimlaneFillColor=#ffffff;align=center;rounded=0;shadow=0;comic=0;labelBackgroundColor=none;strokeWidth=1;fontFamily=Verdana;fontSize=14;fillColor=#F2CC8F;strokeColor=#E07A5F;fontColor=#393C56;" parent="1" vertex="1">
          <mxGeometry x="130" y="240" width="160" height="210" as="geometry" />
        </mxCell>
        <mxCell id="PLVyx06QW_ByIb6izQH0-21" value="person_ID" style="shape=partialRectangle;top=0;left=0;right=0;bottom=1;html=1;align=left;verticalAlign=middle;fillColor=none;spacingLeft=34;spacingRight=4;whiteSpace=wrap;overflow=hidden;rotatable=0;points=[[0,0.5],[1,0.5]];portConstraint=eastwest;dropTarget=0;fontStyle=5;labelBackgroundColor=none;strokeColor=#E07A5F;fontColor=#393C56;" parent="PLVyx06QW_ByIb6izQH0-20" vertex="1">
          <mxGeometry y="26" width="160" height="30" as="geometry" />
        </mxCell>
        <mxCell id="PLVyx06QW_ByIb6izQH0-22" value="PK" style="shape=partialRectangle;top=0;left=0;bottom=0;html=1;fillColor=none;align=left;verticalAlign=middle;spacingLeft=4;spacingRight=4;whiteSpace=wrap;overflow=hidden;rotatable=0;points=[];portConstraint=eastwest;part=1;labelBackgroundColor=none;strokeColor=#E07A5F;fontColor=#393C56;" parent="PLVyx06QW_ByIb6izQH0-21" vertex="1" connectable="0">
          <mxGeometry width="30" height="30" as="geometry" />
        </mxCell>
        <mxCell id="PLVyx06QW_ByIb6izQH0-23" value="first_name" style="shape=partialRectangle;top=0;left=0;right=0;bottom=0;html=1;align=left;verticalAlign=top;fillColor=none;spacingLeft=34;spacingRight=4;whiteSpace=wrap;overflow=hidden;rotatable=0;points=[[0,0.5],[1,0.5]];portConstraint=eastwest;dropTarget=0;labelBackgroundColor=none;strokeColor=#E07A5F;fontColor=#393C56;" parent="PLVyx06QW_ByIb6izQH0-20" vertex="1">
          <mxGeometry y="56" width="160" height="26" as="geometry" />
        </mxCell>
        <mxCell id="PLVyx06QW_ByIb6izQH0-24" value="" style="shape=partialRectangle;top=0;left=0;bottom=0;html=1;fillColor=none;align=left;verticalAlign=top;spacingLeft=4;spacingRight=4;whiteSpace=wrap;overflow=hidden;rotatable=0;points=[];portConstraint=eastwest;part=1;labelBackgroundColor=none;strokeColor=#E07A5F;fontColor=#393C56;" parent="PLVyx06QW_ByIb6izQH0-23" vertex="1" connectable="0">
          <mxGeometry width="30" height="26" as="geometry" />
        </mxCell>
        <mxCell id="PLVyx06QW_ByIb6izQH0-25" value="last_name" style="shape=partialRectangle;top=0;left=0;right=0;bottom=0;html=1;align=left;verticalAlign=top;fillColor=none;spacingLeft=34;spacingRight=4;whiteSpace=wrap;overflow=hidden;rotatable=0;points=[[0,0.5],[1,0.5]];portConstraint=eastwest;dropTarget=0;labelBackgroundColor=none;strokeColor=#E07A5F;fontColor=#393C56;" parent="PLVyx06QW_ByIb6izQH0-20" vertex="1">
          <mxGeometry y="82" width="160" height="26" as="geometry" />
        </mxCell>
        <mxCell id="PLVyx06QW_ByIb6izQH0-26" value="" style="shape=partialRectangle;top=0;left=0;bottom=0;html=1;fillColor=none;align=left;verticalAlign=top;spacingLeft=4;spacingRight=4;whiteSpace=wrap;overflow=hidden;rotatable=0;points=[];portConstraint=eastwest;part=1;labelBackgroundColor=none;strokeColor=#E07A5F;fontColor=#393C56;" parent="PLVyx06QW_ByIb6izQH0-25" vertex="1" connectable="0">
          <mxGeometry width="30" height="26" as="geometry" />
        </mxCell>
        <mxCell id="PLVyx06QW_ByIb6izQH0-27" value="birth_date" style="shape=partialRectangle;top=0;left=0;right=0;bottom=0;html=1;align=left;verticalAlign=top;fillColor=none;spacingLeft=34;spacingRight=4;whiteSpace=wrap;overflow=hidden;rotatable=0;points=[[0,0.5],[1,0.5]];portConstraint=eastwest;dropTarget=0;labelBackgroundColor=none;strokeColor=#E07A5F;fontColor=#393C56;" parent="PLVyx06QW_ByIb6izQH0-20" vertex="1">
          <mxGeometry y="108" width="160" height="22" as="geometry" />
        </mxCell>
        <mxCell id="PLVyx06QW_ByIb6izQH0-28" value="" style="shape=partialRectangle;top=0;left=0;bottom=0;html=1;fillColor=none;align=left;verticalAlign=top;spacingLeft=4;spacingRight=4;whiteSpace=wrap;overflow=hidden;rotatable=0;points=[];portConstraint=eastwest;part=1;labelBackgroundColor=none;strokeColor=#E07A5F;fontColor=#393C56;" parent="PLVyx06QW_ByIb6izQH0-27" vertex="1" connectable="0">
          <mxGeometry width="30" height="22" as="geometry" />
        </mxCell>
        <mxCell id="PLVyx06QW_ByIb6izQH0-29" value="&lt;div&gt;phone_number&lt;/div&gt;" style="shape=partialRectangle;top=0;left=0;right=0;bottom=0;html=1;align=left;verticalAlign=top;fillColor=none;spacingLeft=34;spacingRight=4;whiteSpace=wrap;overflow=hidden;rotatable=0;points=[[0,0.5],[1,0.5]];portConstraint=eastwest;dropTarget=0;labelBackgroundColor=none;strokeColor=#E07A5F;fontColor=#393C56;" parent="PLVyx06QW_ByIb6izQH0-20" vertex="1">
          <mxGeometry y="130" width="160" height="26" as="geometry" />
        </mxCell>
        <mxCell id="PLVyx06QW_ByIb6izQH0-30" value="" style="shape=partialRectangle;top=0;left=0;bottom=0;html=1;fillColor=none;align=left;verticalAlign=top;spacingLeft=4;spacingRight=4;whiteSpace=wrap;overflow=hidden;rotatable=0;points=[];portConstraint=eastwest;part=1;labelBackgroundColor=none;strokeColor=#E07A5F;fontColor=#393C56;" parent="PLVyx06QW_ByIb6izQH0-29" vertex="1" connectable="0">
          <mxGeometry width="30" height="26" as="geometry" />
        </mxCell>
        <mxCell id="PLVyx06QW_ByIb6izQH0-31" value="&lt;div&gt;email&lt;/div&gt;" style="shape=partialRectangle;top=0;left=0;right=0;bottom=0;html=1;align=left;verticalAlign=top;fillColor=none;spacingLeft=34;spacingRight=4;whiteSpace=wrap;overflow=hidden;rotatable=0;points=[[0,0.5],[1,0.5]];portConstraint=eastwest;dropTarget=0;labelBackgroundColor=none;strokeColor=#E07A5F;fontColor=#393C56;" parent="PLVyx06QW_ByIb6izQH0-20" vertex="1">
          <mxGeometry y="156" width="160" height="24" as="geometry" />
        </mxCell>
        <mxCell id="PLVyx06QW_ByIb6izQH0-32" value="" style="shape=partialRectangle;top=0;left=0;bottom=0;html=1;fillColor=none;align=left;verticalAlign=top;spacingLeft=4;spacingRight=4;whiteSpace=wrap;overflow=hidden;rotatable=0;points=[];portConstraint=eastwest;part=1;labelBackgroundColor=none;strokeColor=#E07A5F;fontColor=#393C56;" parent="PLVyx06QW_ByIb6izQH0-31" vertex="1" connectable="0">
          <mxGeometry width="30" height="24" as="geometry" />
        </mxCell>
        <mxCell id="PLVyx06QW_ByIb6izQH0-33" value="residential_address" style="shape=partialRectangle;top=0;left=0;right=0;bottom=0;html=1;align=left;verticalAlign=top;fillColor=none;spacingLeft=34;spacingRight=4;whiteSpace=wrap;overflow=hidden;rotatable=0;points=[[0,0.5],[1,0.5]];portConstraint=eastwest;dropTarget=0;labelBackgroundColor=none;strokeColor=#E07A5F;fontColor=#393C56;" parent="PLVyx06QW_ByIb6izQH0-20" vertex="1">
          <mxGeometry y="180" width="160" height="30" as="geometry" />
        </mxCell>
        <mxCell id="PLVyx06QW_ByIb6izQH0-34" value="" style="shape=partialRectangle;top=0;left=0;bottom=0;html=1;fillColor=none;align=left;verticalAlign=top;spacingLeft=4;spacingRight=4;whiteSpace=wrap;overflow=hidden;rotatable=0;points=[];portConstraint=eastwest;part=1;labelBackgroundColor=none;strokeColor=#E07A5F;fontColor=#393C56;" parent="PLVyx06QW_ByIb6izQH0-33" vertex="1" connectable="0">
          <mxGeometry width="30" height="30" as="geometry" />
        </mxCell>
        <mxCell id="PLVyx06QW_ByIb6izQH0-35" value="transaction" style="swimlane;html=1;fontStyle=0;childLayout=stackLayout;horizontal=1;startSize=26;horizontalStack=0;resizeParent=1;resizeLast=0;collapsible=1;marginBottom=0;swimlaneFillColor=#ffffff;align=center;rounded=0;shadow=0;comic=0;labelBackgroundColor=none;strokeWidth=1;fontFamily=Verdana;fontSize=14;fillColor=#F2CC8F;strokeColor=#E07A5F;fontColor=#393C56;" parent="1" vertex="1">
          <mxGeometry x="240" y="895" width="200" height="170" as="geometry" />
        </mxCell>
        <mxCell id="PLVyx06QW_ByIb6izQH0-36" value="transaction_ID" style="shape=partialRectangle;top=0;left=0;right=0;bottom=0;html=1;align=left;verticalAlign=middle;fillColor=none;spacingLeft=60;spacingRight=4;whiteSpace=wrap;overflow=hidden;rotatable=0;points=[[0,0.5],[1,0.5]];portConstraint=eastwest;dropTarget=0;fontStyle=5;labelBackgroundColor=none;strokeColor=#E07A5F;fontColor=#393C56;" parent="PLVyx06QW_ByIb6izQH0-35" vertex="1">
          <mxGeometry y="26" width="200" height="30" as="geometry" />
        </mxCell>
        <mxCell id="PLVyx06QW_ByIb6izQH0-37" value="PK" style="shape=partialRectangle;fontStyle=1;top=0;left=0;bottom=0;html=1;fillColor=none;align=left;verticalAlign=middle;spacingLeft=4;spacingRight=4;whiteSpace=wrap;overflow=hidden;rotatable=0;points=[];portConstraint=eastwest;part=1;labelBackgroundColor=none;strokeColor=#E07A5F;fontColor=#393C56;" parent="PLVyx06QW_ByIb6izQH0-36" vertex="1" connectable="0">
          <mxGeometry width="30" height="30" as="geometry" />
        </mxCell>
        <mxCell id="PLVyx06QW_ByIb6izQH0-38" value="" style="edgeStyle=none;orthogonalLoop=1;jettySize=auto;html=1;rounded=0;endArrow=none;endFill=0;labelBackgroundColor=none;fontColor=default;strokeColor=#E07A5F;entryX=0.988;entryY=0.34;entryDx=0;entryDy=0;entryPerimeter=0;" parent="PLVyx06QW_ByIb6izQH0-35" target="PLVyx06QW_ByIb6izQH0-161" edge="1">
          <mxGeometry width="80" relative="1" as="geometry">
            <mxPoint y="55.23000000000002" as="sourcePoint" />
            <mxPoint x="260" y="55.23000000000002" as="targetPoint" />
            <Array as="points" />
          </mxGeometry>
        </mxCell>
        <mxCell id="PLVyx06QW_ByIb6izQH0-39" value="source_account_ID" style="shape=partialRectangle;top=0;left=0;right=0;bottom=1;html=1;align=left;verticalAlign=middle;fillColor=none;spacingLeft=60;spacingRight=4;whiteSpace=wrap;overflow=hidden;rotatable=0;points=[[0,0.5],[1,0.5]];portConstraint=eastwest;dropTarget=0;fontStyle=1;labelBackgroundColor=none;strokeColor=#E07A5F;fontColor=#393C56;" parent="PLVyx06QW_ByIb6izQH0-35" vertex="1">
          <mxGeometry y="56" width="200" height="30" as="geometry" />
        </mxCell>
        <mxCell id="PLVyx06QW_ByIb6izQH0-40" value="FK" style="shape=partialRectangle;fontStyle=1;top=0;left=0;bottom=0;html=1;fillColor=none;align=left;verticalAlign=middle;spacingLeft=4;spacingRight=4;whiteSpace=wrap;overflow=hidden;rotatable=0;points=[];portConstraint=eastwest;part=1;labelBackgroundColor=none;strokeColor=#E07A5F;fontColor=#393C56;" parent="PLVyx06QW_ByIb6izQH0-39" vertex="1" connectable="0">
          <mxGeometry width="30" height="30" as="geometry" />
        </mxCell>
        <mxCell id="PLVyx06QW_ByIb6izQH0-41" value="destination_account_ID" style="shape=partialRectangle;top=0;left=0;right=0;bottom=1;html=1;align=left;verticalAlign=middle;fillColor=none;spacingLeft=60;spacingRight=4;whiteSpace=wrap;overflow=hidden;rotatable=0;points=[[0,0.5],[1,0.5]];portConstraint=eastwest;dropTarget=0;fontStyle=1;labelBackgroundColor=none;strokeColor=#E07A5F;fontColor=#393C56;" parent="PLVyx06QW_ByIb6izQH0-35" vertex="1">
          <mxGeometry y="86" width="200" height="30" as="geometry" />
        </mxCell>
        <mxCell id="PLVyx06QW_ByIb6izQH0-42" value="FK" style="shape=partialRectangle;fontStyle=1;top=0;left=0;bottom=0;html=1;fillColor=none;align=left;verticalAlign=middle;spacingLeft=4;spacingRight=4;whiteSpace=wrap;overflow=hidden;rotatable=0;points=[];portConstraint=eastwest;part=1;labelBackgroundColor=none;strokeColor=#E07A5F;fontColor=#393C56;" parent="PLVyx06QW_ByIb6izQH0-41" vertex="1" connectable="0">
          <mxGeometry width="30" height="30" as="geometry" />
        </mxCell>
        <mxCell id="PLVyx06QW_ByIb6izQH0-43" value="transcation_amount" style="shape=partialRectangle;top=0;left=0;right=0;bottom=0;html=1;align=left;verticalAlign=top;fillColor=none;spacingLeft=60;spacingRight=4;whiteSpace=wrap;overflow=hidden;rotatable=0;points=[[0,0.5],[1,0.5]];portConstraint=eastwest;dropTarget=0;labelBackgroundColor=none;strokeColor=#E07A5F;fontColor=#393C56;" parent="PLVyx06QW_ByIb6izQH0-35" vertex="1">
          <mxGeometry y="116" width="200" height="26" as="geometry" />
        </mxCell>
        <mxCell id="PLVyx06QW_ByIb6izQH0-44" value="" style="shape=partialRectangle;top=0;left=0;bottom=0;html=1;fillColor=none;align=left;verticalAlign=top;spacingLeft=4;spacingRight=4;whiteSpace=wrap;overflow=hidden;rotatable=0;points=[];portConstraint=eastwest;part=1;labelBackgroundColor=none;strokeColor=#E07A5F;fontColor=#393C56;" parent="PLVyx06QW_ByIb6izQH0-43" vertex="1" connectable="0">
          <mxGeometry width="30" height="26" as="geometry" />
        </mxCell>
        <mxCell id="PLVyx06QW_ByIb6izQH0-45" value="transaction_date" style="shape=partialRectangle;top=0;left=0;right=0;bottom=0;html=1;align=left;verticalAlign=top;fillColor=none;spacingLeft=60;spacingRight=4;whiteSpace=wrap;overflow=hidden;rotatable=0;points=[[0,0.5],[1,0.5]];portConstraint=eastwest;dropTarget=0;labelBackgroundColor=none;strokeColor=#E07A5F;fontColor=#393C56;" parent="PLVyx06QW_ByIb6izQH0-35" vertex="1">
          <mxGeometry y="142" width="200" height="26" as="geometry" />
        </mxCell>
        <mxCell id="PLVyx06QW_ByIb6izQH0-46" value="" style="shape=partialRectangle;top=0;left=0;bottom=0;html=1;fillColor=none;align=left;verticalAlign=top;spacingLeft=4;spacingRight=4;whiteSpace=wrap;overflow=hidden;rotatable=0;points=[];portConstraint=eastwest;part=1;labelBackgroundColor=none;strokeColor=#E07A5F;fontColor=#393C56;" parent="PLVyx06QW_ByIb6izQH0-45" vertex="1" connectable="0">
          <mxGeometry width="30" height="26" as="geometry" />
        </mxCell>
        <mxCell id="PLVyx06QW_ByIb6izQH0-47" value="customer" style="swimlane;html=1;fontStyle=0;childLayout=stackLayout;horizontal=1;startSize=26;horizontalStack=0;resizeParent=1;resizeLast=0;collapsible=1;marginBottom=0;swimlaneFillColor=#ffffff;align=center;rounded=0;shadow=0;comic=0;labelBackgroundColor=none;strokeWidth=1;fontFamily=Verdana;fontSize=14;fillColor=#F2CC8F;strokeColor=#E07A5F;fontColor=#393C56;" parent="1" vertex="1">
          <mxGeometry x="345" y="390" width="160" height="112" as="geometry" />
        </mxCell>
        <mxCell id="PLVyx06QW_ByIb6izQH0-48" value="customerID" style="shape=partialRectangle;top=0;left=0;right=0;bottom=0;html=1;align=left;verticalAlign=middle;fillColor=none;spacingLeft=60;spacingRight=4;whiteSpace=wrap;overflow=hidden;rotatable=0;points=[[0,0.5],[1,0.5]];portConstraint=eastwest;dropTarget=0;fontStyle=5;labelBackgroundColor=none;strokeColor=#E07A5F;fontColor=#393C56;" parent="PLVyx06QW_ByIb6izQH0-47" vertex="1">
          <mxGeometry y="26" width="160" height="30" as="geometry" />
        </mxCell>
        <mxCell id="PLVyx06QW_ByIb6izQH0-49" value="PK" style="shape=partialRectangle;fontStyle=1;top=0;left=0;bottom=0;html=1;fillColor=none;align=left;verticalAlign=middle;spacingLeft=4;spacingRight=4;whiteSpace=wrap;overflow=hidden;rotatable=0;points=[];portConstraint=eastwest;part=1;labelBackgroundColor=none;strokeColor=#E07A5F;fontColor=#393C56;" parent="PLVyx06QW_ByIb6izQH0-48" vertex="1" connectable="0">
          <mxGeometry width="30" height="30" as="geometry" />
        </mxCell>
        <mxCell id="PLVyx06QW_ByIb6izQH0-124" value="" style="endArrow=none;html=1;rounded=0;labelBackgroundColor=none;fontColor=default;strokeColor=#E07A5F;" parent="PLVyx06QW_ByIb6izQH0-47" edge="1">
          <mxGeometry width="50" height="50" relative="1" as="geometry">
            <mxPoint y="13" as="sourcePoint" />
            <mxPoint y="99" as="targetPoint" />
          </mxGeometry>
        </mxCell>
        <mxCell id="PLVyx06QW_ByIb6izQH0-50" value="person_ID" style="shape=partialRectangle;top=0;left=0;right=0;bottom=0;html=1;align=left;verticalAlign=middle;spacingLeft=60;spacingRight=4;whiteSpace=wrap;overflow=hidden;rotatable=0;points=[[0,0.5],[1,0.5]];portConstraint=eastwest;dropTarget=0;fontStyle=1;labelBackgroundColor=none;fillColor=none;strokeColor=#E07A5F;fontColor=#393C56;" parent="PLVyx06QW_ByIb6izQH0-47" vertex="1">
          <mxGeometry y="56" width="160" height="30" as="geometry" />
        </mxCell>
        <mxCell id="PLVyx06QW_ByIb6izQH0-51" value="FK" style="shape=partialRectangle;fontStyle=1;top=0;left=0;bottom=0;html=1;fillColor=none;align=left;verticalAlign=middle;spacingLeft=4;spacingRight=4;whiteSpace=wrap;overflow=hidden;rotatable=0;points=[];portConstraint=eastwest;part=1;labelBackgroundColor=none;strokeColor=#E07A5F;fontColor=#393C56;" parent="PLVyx06QW_ByIb6izQH0-50" vertex="1" connectable="0">
          <mxGeometry width="30" height="30" as="geometry" />
        </mxCell>
        <mxCell id="PLVyx06QW_ByIb6izQH0-52" value="" style="edgeStyle=none;orthogonalLoop=1;jettySize=auto;html=1;rounded=0;endArrow=none;endFill=0;entryX=0.997;entryY=0.95;entryDx=0;entryDy=0;entryPerimeter=0;exitX=0.003;exitY=0.95;exitDx=0;exitDy=0;exitPerimeter=0;labelBackgroundColor=none;fontColor=default;strokeColor=#E07A5F;" parent="PLVyx06QW_ByIb6izQH0-47" source="PLVyx06QW_ByIb6izQH0-48" target="PLVyx06QW_ByIb6izQH0-48" edge="1">
          <mxGeometry width="80" relative="1" as="geometry">
            <mxPoint x="40" y="55.16999999999996" as="sourcePoint" />
            <mxPoint x="120" y="55.16999999999996" as="targetPoint" />
            <Array as="points" />
          </mxGeometry>
        </mxCell>
        <mxCell id="PLVyx06QW_ByIb6izQH0-123" value="" style="endArrow=none;html=1;rounded=0;labelBackgroundColor=none;fontColor=default;strokeColor=#E07A5F;" parent="PLVyx06QW_ByIb6izQH0-47" edge="1">
          <mxGeometry width="50" height="50" relative="1" as="geometry">
            <mxPoint x="160" y="13" as="sourcePoint" />
            <mxPoint x="160" y="99" as="targetPoint" />
          </mxGeometry>
        </mxCell>
        <mxCell id="PLVyx06QW_ByIb6izQH0-53" value="customer_type" style="shape=partialRectangle;top=0;left=0;right=0;bottom=0;html=1;align=left;verticalAlign=top;fillColor=none;spacingLeft=60;spacingRight=4;whiteSpace=wrap;overflow=hidden;rotatable=0;points=[[0,0.5],[1,0.5]];portConstraint=eastwest;dropTarget=0;labelBackgroundColor=none;strokeColor=#E07A5F;fontColor=#393C56;" parent="PLVyx06QW_ByIb6izQH0-47" vertex="1">
          <mxGeometry y="86" width="160" height="26" as="geometry" />
        </mxCell>
        <mxCell id="PLVyx06QW_ByIb6izQH0-54" value="" style="shape=partialRectangle;top=0;left=0;bottom=0;html=1;fillColor=none;align=left;verticalAlign=top;spacingLeft=4;spacingRight=4;whiteSpace=wrap;overflow=hidden;rotatable=0;points=[];portConstraint=eastwest;part=1;labelBackgroundColor=none;strokeColor=#E07A5F;fontColor=#393C56;" parent="PLVyx06QW_ByIb6izQH0-53" vertex="1" connectable="0">
          <mxGeometry width="30" height="26" as="geometry" />
        </mxCell>
        <mxCell id="PLVyx06QW_ByIb6izQH0-55" value="employee" style="swimlane;html=1;fontStyle=0;childLayout=stackLayout;horizontal=1;startSize=26;horizontalStack=0;resizeParent=1;resizeLast=0;collapsible=1;marginBottom=0;swimlaneFillColor=#ffffff;align=center;rounded=0;shadow=0;comic=0;labelBackgroundColor=none;strokeWidth=1;fontFamily=Verdana;fontSize=14;fillColor=#F2CC8F;strokeColor=#E07A5F;fontColor=#393C56;" parent="1" vertex="1">
          <mxGeometry x="15" y="580" width="160" height="112" as="geometry" />
        </mxCell>
        <mxCell id="PLVyx06QW_ByIb6izQH0-56" value="emplyee_ID" style="shape=partialRectangle;top=0;left=0;right=0;bottom=1;html=1;align=left;verticalAlign=middle;fillColor=none;spacingLeft=34;spacingRight=4;whiteSpace=wrap;overflow=hidden;rotatable=0;points=[[0,0.5],[1,0.5]];portConstraint=eastwest;dropTarget=0;fontStyle=5;labelBackgroundColor=none;strokeColor=#E07A5F;fontColor=#393C56;" parent="PLVyx06QW_ByIb6izQH0-55" vertex="1">
          <mxGeometry y="26" width="160" height="30" as="geometry" />
        </mxCell>
        <mxCell id="PLVyx06QW_ByIb6izQH0-57" value="PK" style="shape=partialRectangle;top=0;left=0;bottom=0;html=1;fillColor=none;align=left;verticalAlign=middle;spacingLeft=4;spacingRight=4;whiteSpace=wrap;overflow=hidden;rotatable=0;points=[];portConstraint=eastwest;part=1;labelBackgroundColor=none;strokeColor=#E07A5F;fontColor=#393C56;" parent="PLVyx06QW_ByIb6izQH0-56" vertex="1" connectable="0">
          <mxGeometry width="30" height="30" as="geometry" />
        </mxCell>
        <mxCell id="PLVyx06QW_ByIb6izQH0-58" value="person_ID" style="shape=partialRectangle;top=0;left=0;right=0;bottom=1;html=1;align=left;verticalAlign=middle;fillColor=none;spacingLeft=34;spacingRight=4;whiteSpace=wrap;overflow=hidden;rotatable=0;points=[[0,0.5],[1,0.5]];portConstraint=eastwest;dropTarget=0;fontStyle=1;strokeColor=none;labelBackgroundColor=none;fontColor=#393C56;" parent="PLVyx06QW_ByIb6izQH0-55" vertex="1">
          <mxGeometry y="56" width="160" height="30" as="geometry" />
        </mxCell>
        <mxCell id="PLVyx06QW_ByIb6izQH0-59" value="FK" style="shape=partialRectangle;top=0;left=0;bottom=0;html=1;fillColor=none;align=left;verticalAlign=middle;spacingLeft=4;spacingRight=4;whiteSpace=wrap;overflow=hidden;rotatable=0;points=[];portConstraint=eastwest;part=1;labelBackgroundColor=none;strokeColor=#E07A5F;fontColor=#393C56;" parent="PLVyx06QW_ByIb6izQH0-58" vertex="1" connectable="0">
          <mxGeometry width="30" height="30" as="geometry" />
        </mxCell>
        <mxCell id="PLVyx06QW_ByIb6izQH0-60" value="job_position" style="shape=partialRectangle;top=0;left=0;right=0;bottom=0;html=1;align=left;verticalAlign=top;fillColor=none;spacingLeft=34;spacingRight=4;whiteSpace=wrap;overflow=hidden;rotatable=0;points=[[0,0.5],[1,0.5]];portConstraint=eastwest;dropTarget=0;labelBackgroundColor=none;strokeColor=#E07A5F;fontColor=#393C56;" parent="PLVyx06QW_ByIb6izQH0-55" vertex="1">
          <mxGeometry y="86" width="160" height="24" as="geometry" />
        </mxCell>
        <mxCell id="PLVyx06QW_ByIb6izQH0-61" value="" style="shape=partialRectangle;top=0;left=0;bottom=0;html=1;fillColor=none;align=left;verticalAlign=top;spacingLeft=4;spacingRight=4;whiteSpace=wrap;overflow=hidden;rotatable=0;points=[];portConstraint=eastwest;part=1;labelBackgroundColor=none;strokeColor=#E07A5F;fontColor=#393C56;" parent="PLVyx06QW_ByIb6izQH0-60" vertex="1" connectable="0">
          <mxGeometry width="30" height="24" as="geometry" />
        </mxCell>
        <mxCell id="PLVyx06QW_ByIb6izQH0-62" value="" style="shape=partialRectangle;top=0;left=0;right=0;bottom=0;html=1;align=left;verticalAlign=top;fillColor=none;spacingLeft=34;spacingRight=4;whiteSpace=wrap;overflow=hidden;rotatable=0;points=[[0,0.5],[1,0.5]];portConstraint=eastwest;dropTarget=0;labelBackgroundColor=none;strokeColor=#E07A5F;fontColor=#393C56;" parent="PLVyx06QW_ByIb6izQH0-55" vertex="1">
          <mxGeometry y="110" width="160" height="2" as="geometry" />
        </mxCell>
        <mxCell id="PLVyx06QW_ByIb6izQH0-63" value="" style="shape=partialRectangle;top=0;left=0;bottom=0;html=1;fillColor=none;align=left;verticalAlign=top;spacingLeft=4;spacingRight=4;whiteSpace=wrap;overflow=hidden;rotatable=0;points=[];portConstraint=eastwest;part=1;labelBackgroundColor=none;strokeColor=#E07A5F;fontColor=#393C56;" parent="PLVyx06QW_ByIb6izQH0-62" vertex="1" connectable="0">
          <mxGeometry width="30" height="2" as="geometry" />
        </mxCell>
        <mxCell id="PLVyx06QW_ByIb6izQH0-72" value="bank_loan" style="swimlane;html=1;fontStyle=0;childLayout=stackLayout;horizontal=1;startSize=26;horizontalStack=0;resizeParent=1;resizeLast=0;collapsible=1;marginBottom=0;swimlaneFillColor=#ffffff;align=center;rounded=0;shadow=0;comic=0;labelBackgroundColor=none;strokeWidth=1;fontFamily=Verdana;fontSize=14;fillColor=#F2CC8F;strokeColor=#E07A5F;fontColor=#393C56;" parent="1" vertex="1">
          <mxGeometry x="533.74" y="170" width="176.26" height="324" as="geometry" />
        </mxCell>
        <mxCell id="PLVyx06QW_ByIb6izQH0-73" value="loan_ID" style="shape=partialRectangle;top=0;left=0;right=0;bottom=0;html=1;align=left;verticalAlign=middle;fillColor=none;spacingLeft=60;spacingRight=4;whiteSpace=wrap;overflow=hidden;rotatable=0;points=[[0,0.5],[1,0.5]];portConstraint=eastwest;dropTarget=0;fontStyle=5;labelBackgroundColor=none;strokeColor=#E07A5F;fontColor=#393C56;" parent="PLVyx06QW_ByIb6izQH0-72" vertex="1">
          <mxGeometry y="26" width="176.26" height="30" as="geometry" />
        </mxCell>
        <mxCell id="PLVyx06QW_ByIb6izQH0-74" value="PK" style="shape=partialRectangle;fontStyle=1;top=0;left=0;bottom=0;html=1;fillColor=none;align=left;verticalAlign=middle;spacingLeft=4;spacingRight=4;whiteSpace=wrap;overflow=hidden;rotatable=0;points=[];portConstraint=eastwest;part=1;labelBackgroundColor=none;strokeColor=#E07A5F;fontColor=#393C56;" parent="PLVyx06QW_ByIb6izQH0-73" vertex="1" connectable="0">
          <mxGeometry width="30" height="30" as="geometry" />
        </mxCell>
        <mxCell id="PLVyx06QW_ByIb6izQH0-75" value="" style="edgeStyle=none;orthogonalLoop=1;jettySize=auto;html=1;rounded=0;endArrow=none;endFill=0;labelBackgroundColor=none;fontColor=default;strokeColor=#E07A5F;entryX=0.991;entryY=-0.089;entryDx=0;entryDy=0;entryPerimeter=0;" parent="PLVyx06QW_ByIb6izQH0-72" target="PLVyx06QW_ByIb6izQH0-76" edge="1">
          <mxGeometry width="80" relative="1" as="geometry">
            <mxPoint y="55.23000000000002" as="sourcePoint" />
            <mxPoint x="260" y="55.23000000000002" as="targetPoint" />
            <Array as="points" />
          </mxGeometry>
        </mxCell>
        <mxCell id="PLVyx06QW_ByIb6izQH0-76" value="borrower_ID" style="shape=partialRectangle;top=0;left=0;right=0;bottom=1;html=1;align=left;verticalAlign=middle;fillColor=none;spacingLeft=60;spacingRight=4;whiteSpace=wrap;overflow=hidden;rotatable=0;points=[[0,0.5],[1,0.5]];portConstraint=eastwest;dropTarget=0;fontStyle=1;labelBackgroundColor=none;strokeColor=#E07A5F;fontColor=#393C56;" parent="PLVyx06QW_ByIb6izQH0-72" vertex="1">
          <mxGeometry y="56" width="176.26" height="30" as="geometry" />
        </mxCell>
        <mxCell id="PLVyx06QW_ByIb6izQH0-77" value="FK" style="shape=partialRectangle;fontStyle=1;top=0;left=0;bottom=0;html=1;fillColor=none;align=left;verticalAlign=middle;spacingLeft=4;spacingRight=4;whiteSpace=wrap;overflow=hidden;rotatable=0;points=[];portConstraint=eastwest;part=1;labelBackgroundColor=none;strokeColor=#E07A5F;fontColor=#393C56;" parent="PLVyx06QW_ByIb6izQH0-76" vertex="1" connectable="0">
          <mxGeometry width="30" height="30" as="geometry" />
        </mxCell>
        <mxCell id="PLVyx06QW_ByIb6izQH0-78" value="loan_type" style="shape=partialRectangle;top=0;left=0;right=0;bottom=1;html=1;align=left;verticalAlign=middle;fillColor=none;spacingLeft=60;spacingRight=4;whiteSpace=wrap;overflow=hidden;rotatable=0;points=[[0,0.5],[1,0.5]];portConstraint=eastwest;dropTarget=0;fontStyle=0;strokeColor=none;labelBackgroundColor=none;fontColor=#393C56;" parent="PLVyx06QW_ByIb6izQH0-72" vertex="1">
          <mxGeometry y="86" width="176.26" height="30" as="geometry" />
        </mxCell>
        <mxCell id="PLVyx06QW_ByIb6izQH0-79" value="" style="shape=partialRectangle;fontStyle=1;top=0;left=0;bottom=0;html=1;fillColor=none;align=left;verticalAlign=middle;spacingLeft=4;spacingRight=4;whiteSpace=wrap;overflow=hidden;rotatable=0;points=[];portConstraint=eastwest;part=1;labelBackgroundColor=none;strokeColor=#E07A5F;fontColor=#393C56;" parent="PLVyx06QW_ByIb6izQH0-78" vertex="1" connectable="0">
          <mxGeometry width="30" height="30" as="geometry" />
        </mxCell>
        <mxCell id="PLVyx06QW_ByIb6izQH0-80" value="loan_amount" style="shape=partialRectangle;top=0;left=0;right=0;bottom=0;html=1;align=left;verticalAlign=top;fillColor=none;spacingLeft=60;spacingRight=4;whiteSpace=wrap;overflow=hidden;rotatable=0;points=[[0,0.5],[1,0.5]];portConstraint=eastwest;dropTarget=0;labelBackgroundColor=none;strokeColor=#E07A5F;fontColor=#393C56;" parent="PLVyx06QW_ByIb6izQH0-72" vertex="1">
          <mxGeometry y="116" width="176.26" height="26" as="geometry" />
        </mxCell>
        <mxCell id="PLVyx06QW_ByIb6izQH0-81" value="" style="shape=partialRectangle;top=0;left=0;bottom=0;html=1;fillColor=none;align=left;verticalAlign=top;spacingLeft=4;spacingRight=4;whiteSpace=wrap;overflow=hidden;rotatable=0;points=[];portConstraint=eastwest;part=1;labelBackgroundColor=none;strokeColor=#E07A5F;fontColor=#393C56;" parent="PLVyx06QW_ByIb6izQH0-80" vertex="1" connectable="0">
          <mxGeometry width="30" height="26" as="geometry" />
        </mxCell>
        <mxCell id="PLVyx06QW_ByIb6izQH0-82" value="interest_rate" style="shape=partialRectangle;top=0;left=0;right=0;bottom=0;html=1;align=left;verticalAlign=top;fillColor=none;spacingLeft=60;spacingRight=4;whiteSpace=wrap;overflow=hidden;rotatable=0;points=[[0,0.5],[1,0.5]];portConstraint=eastwest;dropTarget=0;labelBackgroundColor=none;strokeColor=#E07A5F;fontColor=#393C56;" parent="PLVyx06QW_ByIb6izQH0-72" vertex="1">
          <mxGeometry y="142" width="176.26" height="26" as="geometry" />
        </mxCell>
        <mxCell id="PLVyx06QW_ByIb6izQH0-83" value="" style="shape=partialRectangle;top=0;left=0;bottom=0;html=1;fillColor=none;align=left;verticalAlign=top;spacingLeft=4;spacingRight=4;whiteSpace=wrap;overflow=hidden;rotatable=0;points=[];portConstraint=eastwest;part=1;labelBackgroundColor=none;strokeColor=#E07A5F;fontColor=#393C56;" parent="PLVyx06QW_ByIb6izQH0-82" vertex="1" connectable="0">
          <mxGeometry width="30" height="26" as="geometry" />
        </mxCell>
        <mxCell id="PLVyx06QW_ByIb6izQH0-84" value="payback_period" style="shape=partialRectangle;top=0;left=0;right=0;bottom=0;html=1;align=left;verticalAlign=top;fillColor=none;spacingLeft=60;spacingRight=4;whiteSpace=wrap;overflow=hidden;rotatable=0;points=[[0,0.5],[1,0.5]];portConstraint=eastwest;dropTarget=0;labelBackgroundColor=none;strokeColor=#E07A5F;fontColor=#393C56;" parent="PLVyx06QW_ByIb6izQH0-72" vertex="1">
          <mxGeometry y="168" width="176.26" height="26" as="geometry" />
        </mxCell>
        <mxCell id="PLVyx06QW_ByIb6izQH0-85" value="" style="shape=partialRectangle;top=0;left=0;bottom=0;html=1;fillColor=none;align=left;verticalAlign=top;spacingLeft=4;spacingRight=4;whiteSpace=wrap;overflow=hidden;rotatable=0;points=[];portConstraint=eastwest;part=1;labelBackgroundColor=none;strokeColor=#E07A5F;fontColor=#393C56;" parent="PLVyx06QW_ByIb6izQH0-84" vertex="1" connectable="0">
          <mxGeometry width="30" height="26" as="geometry" />
        </mxCell>
        <mxCell id="PLVyx06QW_ByIb6izQH0-86" value="start_date" style="shape=partialRectangle;top=0;left=0;right=0;bottom=0;html=1;align=left;verticalAlign=top;fillColor=none;spacingLeft=60;spacingRight=4;whiteSpace=wrap;overflow=hidden;rotatable=0;points=[[0,0.5],[1,0.5]];portConstraint=eastwest;dropTarget=0;labelBackgroundColor=none;strokeColor=#E07A5F;fontColor=#393C56;" parent="PLVyx06QW_ByIb6izQH0-72" vertex="1">
          <mxGeometry y="194" width="176.26" height="26" as="geometry" />
        </mxCell>
        <mxCell id="PLVyx06QW_ByIb6izQH0-87" value="" style="shape=partialRectangle;top=0;left=0;bottom=0;html=1;fillColor=none;align=left;verticalAlign=top;spacingLeft=4;spacingRight=4;whiteSpace=wrap;overflow=hidden;rotatable=0;points=[];portConstraint=eastwest;part=1;labelBackgroundColor=none;strokeColor=#E07A5F;fontColor=#393C56;" parent="PLVyx06QW_ByIb6izQH0-86" vertex="1" connectable="0">
          <mxGeometry width="30" height="26" as="geometry" />
        </mxCell>
        <mxCell id="PLVyx06QW_ByIb6izQH0-88" value="end_date" style="shape=partialRectangle;top=0;left=0;right=0;bottom=0;html=1;align=left;verticalAlign=top;fillColor=none;spacingLeft=60;spacingRight=4;whiteSpace=wrap;overflow=hidden;rotatable=0;points=[[0,0.5],[1,0.5]];portConstraint=eastwest;dropTarget=0;labelBackgroundColor=none;strokeColor=#E07A5F;fontColor=#393C56;" parent="PLVyx06QW_ByIb6izQH0-72" vertex="1">
          <mxGeometry y="220" width="176.26" height="26" as="geometry" />
        </mxCell>
        <mxCell id="PLVyx06QW_ByIb6izQH0-89" value="" style="shape=partialRectangle;top=0;left=0;bottom=0;html=1;fillColor=none;align=left;verticalAlign=top;spacingLeft=4;spacingRight=4;whiteSpace=wrap;overflow=hidden;rotatable=0;points=[];portConstraint=eastwest;part=1;labelBackgroundColor=none;strokeColor=#E07A5F;fontColor=#393C56;" parent="PLVyx06QW_ByIb6izQH0-88" vertex="1" connectable="0">
          <mxGeometry width="30" height="26" as="geometry" />
        </mxCell>
        <mxCell id="PLVyx06QW_ByIb6izQH0-90" value="loan_status" style="shape=partialRectangle;top=0;left=0;right=0;bottom=0;html=1;align=left;verticalAlign=top;fillColor=none;spacingLeft=60;spacingRight=4;whiteSpace=wrap;overflow=hidden;rotatable=0;points=[[0,0.5],[1,0.5]];portConstraint=eastwest;dropTarget=0;labelBackgroundColor=none;strokeColor=#E07A5F;fontColor=#393C56;" parent="PLVyx06QW_ByIb6izQH0-72" vertex="1">
          <mxGeometry y="246" width="176.26" height="26" as="geometry" />
        </mxCell>
        <mxCell id="PLVyx06QW_ByIb6izQH0-91" value="" style="shape=partialRectangle;top=0;left=0;bottom=0;html=1;fillColor=none;align=left;verticalAlign=top;spacingLeft=4;spacingRight=4;whiteSpace=wrap;overflow=hidden;rotatable=0;points=[];portConstraint=eastwest;part=1;labelBackgroundColor=none;strokeColor=#E07A5F;fontColor=#393C56;" parent="PLVyx06QW_ByIb6izQH0-90" vertex="1" connectable="0">
          <mxGeometry width="30" height="26" as="geometry" />
        </mxCell>
        <mxCell id="PLVyx06QW_ByIb6izQH0-92" value="installments_count" style="shape=partialRectangle;top=0;left=0;right=0;bottom=0;html=1;align=left;verticalAlign=top;fillColor=none;spacingLeft=60;spacingRight=4;whiteSpace=wrap;overflow=hidden;rotatable=0;points=[[0,0.5],[1,0.5]];portConstraint=eastwest;dropTarget=0;labelBackgroundColor=none;strokeColor=#E07A5F;fontColor=#393C56;" parent="PLVyx06QW_ByIb6izQH0-72" vertex="1">
          <mxGeometry y="272" width="176.26" height="26" as="geometry" />
        </mxCell>
        <mxCell id="PLVyx06QW_ByIb6izQH0-93" value="" style="shape=partialRectangle;top=0;left=0;bottom=0;html=1;fillColor=none;align=left;verticalAlign=top;spacingLeft=4;spacingRight=4;whiteSpace=wrap;overflow=hidden;rotatable=0;points=[];portConstraint=eastwest;part=1;labelBackgroundColor=none;strokeColor=#E07A5F;fontColor=#393C56;" parent="PLVyx06QW_ByIb6izQH0-92" vertex="1" connectable="0">
          <mxGeometry width="30" height="26" as="geometry" />
        </mxCell>
        <mxCell id="PLVyx06QW_ByIb6izQH0-94" value="paid_amount_sum" style="shape=partialRectangle;top=0;left=0;right=0;bottom=0;html=1;align=left;verticalAlign=top;fillColor=none;spacingLeft=60;spacingRight=4;whiteSpace=wrap;overflow=hidden;rotatable=0;points=[[0,0.5],[1,0.5]];portConstraint=eastwest;dropTarget=0;labelBackgroundColor=none;strokeColor=#E07A5F;fontColor=#393C56;" parent="PLVyx06QW_ByIb6izQH0-72" vertex="1">
          <mxGeometry y="298" width="176.26" height="26" as="geometry" />
        </mxCell>
        <mxCell id="PLVyx06QW_ByIb6izQH0-95" value="" style="shape=partialRectangle;top=0;left=0;bottom=0;html=1;fillColor=none;align=left;verticalAlign=top;spacingLeft=4;spacingRight=4;whiteSpace=wrap;overflow=hidden;rotatable=0;points=[];portConstraint=eastwest;part=1;labelBackgroundColor=none;strokeColor=#E07A5F;fontColor=#393C56;" parent="PLVyx06QW_ByIb6izQH0-94" vertex="1" connectable="0">
          <mxGeometry width="30" height="26" as="geometry" />
        </mxCell>
        <mxCell id="PLVyx06QW_ByIb6izQH0-97" value="installment" style="swimlane;html=1;fontStyle=0;childLayout=stackLayout;horizontal=1;startSize=26;horizontalStack=0;resizeParent=1;resizeLast=0;collapsible=1;marginBottom=0;swimlaneFillColor=#ffffff;align=center;rounded=0;shadow=0;comic=0;labelBackgroundColor=none;strokeWidth=1;fontFamily=Verdana;fontSize=14;fillColor=#F2CC8F;strokeColor=#E07A5F;fontColor=#393C56;" parent="1" vertex="1">
          <mxGeometry x="430" y="590" width="170" height="194" as="geometry" />
        </mxCell>
        <mxCell id="PLVyx06QW_ByIb6izQH0-98" value="installment_ID" style="shape=partialRectangle;top=0;left=0;right=0;bottom=0;html=1;align=left;verticalAlign=middle;fillColor=none;spacingLeft=60;spacingRight=4;whiteSpace=wrap;overflow=hidden;rotatable=0;points=[[0,0.5],[1,0.5]];portConstraint=eastwest;dropTarget=0;fontStyle=5;labelBackgroundColor=none;strokeColor=#E07A5F;fontColor=#393C56;" parent="PLVyx06QW_ByIb6izQH0-97" vertex="1">
          <mxGeometry y="26" width="170" height="30" as="geometry" />
        </mxCell>
        <mxCell id="PLVyx06QW_ByIb6izQH0-99" value="PK" style="shape=partialRectangle;fontStyle=1;top=0;left=0;bottom=0;html=1;fillColor=none;align=left;verticalAlign=middle;spacingLeft=4;spacingRight=4;whiteSpace=wrap;overflow=hidden;rotatable=0;points=[];portConstraint=eastwest;part=1;labelBackgroundColor=none;strokeColor=#E07A5F;fontColor=#393C56;" parent="PLVyx06QW_ByIb6izQH0-98" vertex="1" connectable="0">
          <mxGeometry width="30" height="30" as="geometry" />
        </mxCell>
        <mxCell id="PLVyx06QW_ByIb6izQH0-100" value="" style="edgeStyle=none;orthogonalLoop=1;jettySize=auto;html=1;rounded=0;endArrow=none;endFill=0;labelBackgroundColor=none;fontColor=default;strokeColor=#E07A5F;entryX=0.994;entryY=0.04;entryDx=0;entryDy=0;entryPerimeter=0;" parent="PLVyx06QW_ByIb6izQH0-97" target="PLVyx06QW_ByIb6izQH0-101" edge="1">
          <mxGeometry width="80" relative="1" as="geometry">
            <mxPoint y="55.23000000000002" as="sourcePoint" />
            <mxPoint x="260" y="55.23000000000002" as="targetPoint" />
            <Array as="points" />
          </mxGeometry>
        </mxCell>
        <mxCell id="PLVyx06QW_ByIb6izQH0-101" value="loan_ID" style="shape=partialRectangle;top=0;left=0;right=0;bottom=1;html=1;align=left;verticalAlign=middle;fillColor=none;spacingLeft=60;spacingRight=4;whiteSpace=wrap;overflow=hidden;rotatable=0;points=[[0,0.5],[1,0.5]];portConstraint=eastwest;dropTarget=0;fontStyle=1;labelBackgroundColor=none;strokeColor=#E07A5F;fontColor=#393C56;" parent="PLVyx06QW_ByIb6izQH0-97" vertex="1">
          <mxGeometry y="56" width="170" height="30" as="geometry" />
        </mxCell>
        <mxCell id="PLVyx06QW_ByIb6izQH0-102" value="FK" style="shape=partialRectangle;fontStyle=1;top=0;left=0;bottom=0;html=1;fillColor=none;align=left;verticalAlign=middle;spacingLeft=4;spacingRight=4;whiteSpace=wrap;overflow=hidden;rotatable=0;points=[];portConstraint=eastwest;part=1;labelBackgroundColor=none;strokeColor=#E07A5F;fontColor=#393C56;" parent="PLVyx06QW_ByIb6izQH0-101" vertex="1" connectable="0">
          <mxGeometry width="30" height="30" as="geometry" />
        </mxCell>
        <mxCell id="PLVyx06QW_ByIb6izQH0-103" value="payment_deadline" style="shape=partialRectangle;top=0;left=0;right=0;bottom=1;html=1;align=left;verticalAlign=middle;fillColor=none;spacingLeft=60;spacingRight=4;whiteSpace=wrap;overflow=hidden;rotatable=0;points=[[0,0.5],[1,0.5]];portConstraint=eastwest;dropTarget=0;fontStyle=0;strokeColor=none;labelBackgroundColor=none;fontColor=#393C56;" parent="PLVyx06QW_ByIb6izQH0-97" vertex="1">
          <mxGeometry y="86" width="170" height="30" as="geometry" />
        </mxCell>
        <mxCell id="PLVyx06QW_ByIb6izQH0-104" value="" style="shape=partialRectangle;fontStyle=1;top=0;left=0;bottom=0;html=1;fillColor=none;align=left;verticalAlign=middle;spacingLeft=4;spacingRight=4;whiteSpace=wrap;overflow=hidden;rotatable=0;points=[];portConstraint=eastwest;part=1;labelBackgroundColor=none;strokeColor=#E07A5F;fontColor=#393C56;" parent="PLVyx06QW_ByIb6izQH0-103" vertex="1" connectable="0">
          <mxGeometry height="30" as="geometry" />
        </mxCell>
        <mxCell id="PLVyx06QW_ByIb6izQH0-105" value="paid_date" style="shape=partialRectangle;top=0;left=0;right=0;bottom=0;html=1;align=left;verticalAlign=top;fillColor=none;spacingLeft=60;spacingRight=4;whiteSpace=wrap;overflow=hidden;rotatable=0;points=[[0,0.5],[1,0.5]];portConstraint=eastwest;dropTarget=0;labelBackgroundColor=none;strokeColor=#E07A5F;fontColor=#393C56;" parent="PLVyx06QW_ByIb6izQH0-97" vertex="1">
          <mxGeometry y="116" width="170" height="26" as="geometry" />
        </mxCell>
        <mxCell id="PLVyx06QW_ByIb6izQH0-106" value="" style="shape=partialRectangle;top=0;left=0;bottom=0;html=1;fillColor=none;align=left;verticalAlign=top;spacingLeft=4;spacingRight=4;whiteSpace=wrap;overflow=hidden;rotatable=0;points=[];portConstraint=eastwest;part=1;labelBackgroundColor=none;strokeColor=#E07A5F;fontColor=#393C56;" parent="PLVyx06QW_ByIb6izQH0-105" vertex="1" connectable="0">
          <mxGeometry height="26" as="geometry" />
        </mxCell>
        <mxCell id="PLVyx06QW_ByIb6izQH0-107" value="paid_amount" style="shape=partialRectangle;top=0;left=0;right=0;bottom=0;html=1;align=left;verticalAlign=top;fillColor=none;spacingLeft=60;spacingRight=4;whiteSpace=wrap;overflow=hidden;rotatable=0;points=[[0,0.5],[1,0.5]];portConstraint=eastwest;dropTarget=0;labelBackgroundColor=none;strokeColor=#E07A5F;fontColor=#393C56;" parent="PLVyx06QW_ByIb6izQH0-97" vertex="1">
          <mxGeometry y="142" width="170" height="26" as="geometry" />
        </mxCell>
        <mxCell id="PLVyx06QW_ByIb6izQH0-108" value="" style="shape=partialRectangle;top=0;left=0;bottom=0;html=1;fillColor=none;align=left;verticalAlign=top;spacingLeft=4;spacingRight=4;whiteSpace=wrap;overflow=hidden;rotatable=0;points=[];portConstraint=eastwest;part=1;labelBackgroundColor=none;strokeColor=#E07A5F;fontColor=#393C56;" parent="PLVyx06QW_ByIb6izQH0-107" vertex="1" connectable="0">
          <mxGeometry height="26" as="geometry" />
        </mxCell>
        <mxCell id="PLVyx06QW_ByIb6izQH0-109" value="paid_interest" style="shape=partialRectangle;top=0;left=0;right=0;bottom=0;html=1;align=left;verticalAlign=top;fillColor=none;spacingLeft=60;spacingRight=4;whiteSpace=wrap;overflow=hidden;rotatable=0;points=[[0,0.5],[1,0.5]];portConstraint=eastwest;dropTarget=0;labelBackgroundColor=none;strokeColor=#E07A5F;fontColor=#393C56;" parent="PLVyx06QW_ByIb6izQH0-97" vertex="1">
          <mxGeometry y="168" width="170" height="26" as="geometry" />
        </mxCell>
        <mxCell id="PLVyx06QW_ByIb6izQH0-110" value="" style="shape=partialRectangle;top=0;left=0;bottom=0;html=1;fillColor=none;align=left;verticalAlign=top;spacingLeft=4;spacingRight=4;whiteSpace=wrap;overflow=hidden;rotatable=0;points=[];portConstraint=eastwest;part=1;labelBackgroundColor=none;strokeColor=#E07A5F;fontColor=#393C56;" parent="PLVyx06QW_ByIb6izQH0-109" vertex="1" connectable="0">
          <mxGeometry height="26" as="geometry" />
        </mxCell>
        <mxCell id="PLVyx06QW_ByIb6izQH0-121" value="owning" style="rhombus;whiteSpace=wrap;html=1;labelBackgroundColor=none;fillColor=#F2CC8F;strokeColor=#E07A5F;fontColor=#393C56;" parent="1" vertex="1">
          <mxGeometry x="265.75" y="630" width="90" height="70" as="geometry" />
        </mxCell>
        <mxCell id="PLVyx06QW_ByIb6izQH0-127" value="loan_inst" style="rhombus;whiteSpace=wrap;html=1;labelBackgroundColor=none;fillColor=#F2CC8F;strokeColor=#E07A5F;fontColor=#393C56;" parent="1" vertex="1">
          <mxGeometry x="720" y="430" width="130" height="130" as="geometry" />
        </mxCell>
        <mxCell id="PLVyx06QW_ByIb6izQH0-128" value="" style="endArrow=none;html=1;rounded=0;entryX=0.5;entryY=1;entryDx=0;entryDy=0;labelBackgroundColor=none;fontColor=default;strokeColor=#E07A5F;startArrow=ERoneToMany;startFill=0;edgeStyle=orthogonalEdgeStyle;" parent="1" target="PLVyx06QW_ByIb6izQH0-127" edge="1">
          <mxGeometry width="50" height="50" relative="1" as="geometry">
            <mxPoint x="600" y="603" as="sourcePoint" />
            <mxPoint x="960" y="862" as="targetPoint" />
          </mxGeometry>
        </mxCell>
        <mxCell id="PLVyx06QW_ByIb6izQH0-129" value="" style="endArrow=ERone;html=1;rounded=0;exitX=0.5;exitY=0.015;exitDx=0;exitDy=0;labelBackgroundColor=none;fontColor=default;strokeColor=#E07A5F;endFill=0;entryX=0.994;entryY=0.451;entryDx=0;entryDy=0;entryPerimeter=0;exitPerimeter=0;" parent="1" source="PLVyx06QW_ByIb6izQH0-127" target="PLVyx06QW_ByIb6izQH0-76" edge="1">
          <mxGeometry width="50" height="50" relative="1" as="geometry">
            <mxPoint x="795" y="429" as="sourcePoint" />
            <mxPoint x="720" y="240" as="targetPoint" />
            <Array as="points">
              <mxPoint x="780" y="240" />
            </Array>
          </mxGeometry>
        </mxCell>
        <mxCell id="PLVyx06QW_ByIb6izQH0-130" value="transactioning" style="rhombus;whiteSpace=wrap;html=1;labelBackgroundColor=none;fillColor=#F2CC8F;strokeColor=#E07A5F;fontColor=#393C56;" parent="1" vertex="1">
          <mxGeometry x="220" y="718" width="150" height="120" as="geometry" />
        </mxCell>
        <mxCell id="PLVyx06QW_ByIb6izQH0-132" value="" style="endArrow=none;html=1;rounded=0;labelBackgroundColor=none;fontColor=default;strokeColor=#E07A5F;startArrow=ERzeroToMany;startFill=0;entryX=1;entryY=0.5;entryDx=0;entryDy=0;elbow=vertical;" parent="1" source="PLVyx06QW_ByIb6izQH0-161" target="PLVyx06QW_ByIb6izQH0-158" edge="1">
          <mxGeometry width="50" height="50" relative="1" as="geometry">
            <mxPoint x="381" y="898" as="sourcePoint" />
            <mxPoint x="360" y="1040" as="targetPoint" />
          </mxGeometry>
        </mxCell>
        <mxCell id="PLVyx06QW_ByIb6izQH0-134" value="being_employee" style="rhombus;whiteSpace=wrap;html=1;labelBackgroundColor=none;fillColor=#F2CC8F;strokeColor=#E07A5F;fontColor=#393C56;" parent="1" vertex="1">
          <mxGeometry y="400" width="130" height="130" as="geometry" />
        </mxCell>
        <mxCell id="PLVyx06QW_ByIb6izQH0-135" value="being_customer" style="rhombus;whiteSpace=wrap;html=1;labelBackgroundColor=none;fillColor=#F2CC8F;strokeColor=#E07A5F;fontColor=#393C56;" parent="1" vertex="1">
          <mxGeometry x="170" y="502" width="130" height="130" as="geometry" />
        </mxCell>
        <mxCell id="PLVyx06QW_ByIb6izQH0-136" value="" style="fontSize=12;html=1;endArrow=ERone;endFill=0;rounded=0;strokeColor=#E07A5F;fontColor=#393C56;fillColor=#F2CC8F;exitX=0.5;exitY=0;exitDx=0;exitDy=0;entryX=0;entryY=0.5;entryDx=0;entryDy=0;edgeStyle=orthogonalEdgeStyle;" parent="1" source="PLVyx06QW_ByIb6izQH0-134" target="PLVyx06QW_ByIb6izQH0-25" edge="1">
          <mxGeometry width="100" height="100" relative="1" as="geometry">
            <mxPoint x="200" y="480" as="sourcePoint" />
            <mxPoint x="100" y="400" as="targetPoint" />
          </mxGeometry>
        </mxCell>
        <mxCell id="PLVyx06QW_ByIb6izQH0-146" value="" style="edgeStyle=elbowEdgeStyle;fontSize=12;html=1;endArrow=ERzeroToOne;rounded=0;strokeColor=#E07A5F;fontColor=#393C56;fillColor=#F2CC8F;endFill=0;exitX=1;exitY=0.5;exitDx=0;exitDy=0;" parent="1" source="PLVyx06QW_ByIb6izQH0-135" target="PLVyx06QW_ByIb6izQH0-48" edge="1">
          <mxGeometry width="100" height="100" relative="1" as="geometry">
            <mxPoint x="332.5" y="635" as="sourcePoint" />
            <mxPoint x="302.5" y="790" as="targetPoint" />
          </mxGeometry>
        </mxCell>
        <mxCell id="PLVyx06QW_ByIb6izQH0-147" value="" style="fontSize=12;html=1;endArrow=ERzeroToMany;rounded=0;strokeColor=#E07A5F;fontColor=#393C56;fillColor=#F2CC8F;endFill=0;edgeStyle=elbowEdgeStyle;" parent="1" source="PLVyx06QW_ByIb6izQH0-121" target="PLVyx06QW_ByIb6izQH0-1" edge="1">
          <mxGeometry width="100" height="100" relative="1" as="geometry">
            <mxPoint x="398.0200000000001" y="921.6799999999998" as="sourcePoint" />
            <mxPoint x="153" y="732" as="targetPoint" />
          </mxGeometry>
        </mxCell>
        <mxCell id="PLVyx06QW_ByIb6izQH0-149" value="" style="fontSize=12;html=1;endArrow=ERone;endFill=0;rounded=0;strokeColor=#E07A5F;fontColor=#393C56;fillColor=#F2CC8F;exitX=0.5;exitY=1;exitDx=0;exitDy=0;elbow=vertical;entryX=0.342;entryY=0;entryDx=0;entryDy=0;entryPerimeter=0;" parent="1" source="PLVyx06QW_ByIb6izQH0-118" target="PLVyx06QW_ByIb6izQH0-47" edge="1">
          <mxGeometry width="100" height="100" relative="1" as="geometry">
            <mxPoint x="640" y="930" as="sourcePoint" />
            <mxPoint x="399" y="390" as="targetPoint" />
            <Array as="points">
              <mxPoint x="400" y="320" />
            </Array>
          </mxGeometry>
        </mxCell>
        <mxCell id="PLVyx06QW_ByIb6izQH0-151" value="" style="fontSize=12;html=1;endArrow=ERoneToMany;endFill=0;rounded=0;strokeColor=#E07A5F;fontColor=#393C56;fillColor=#F2CC8F;exitX=0;exitY=0.5;exitDx=0;exitDy=0;entryX=1.005;entryY=0.156;entryDx=0;entryDy=0;entryPerimeter=0;" parent="1" source="PLVyx06QW_ByIb6izQH0-130" target="PLVyx06QW_ByIb6izQH0-4" edge="1">
          <mxGeometry width="100" height="100" relative="1" as="geometry">
            <mxPoint x="210" y="1547" as="sourcePoint" />
            <mxPoint x="150" y="780" as="targetPoint" />
          </mxGeometry>
        </mxCell>
        <mxCell id="PLVyx06QW_ByIb6izQH0-118" value="get_loan" style="rhombus;whiteSpace=wrap;html=1;labelBackgroundColor=none;fillColor=#F2CC8F;strokeColor=#E07A5F;fontColor=#393C56;" parent="1" vertex="1">
          <mxGeometry x="360" y="210" width="80" height="80" as="geometry" />
        </mxCell>
        <mxCell id="PLVyx06QW_ByIb6izQH0-156" value="" style="fontSize=12;html=1;endArrow=ERone;endFill=0;rounded=0;strokeColor=#E07A5F;fontColor=#393C56;fillColor=#F2CC8F;exitX=1;exitY=0.5;exitDx=0;exitDy=0;edgeStyle=elbowEdgeStyle;elbow=vertical;entryX=0.412;entryY=1.05;entryDx=0;entryDy=0;entryPerimeter=0;" parent="1" source="PLVyx06QW_ByIb6izQH0-121" target="PLVyx06QW_ByIb6izQH0-53" edge="1">
          <mxGeometry width="100" height="100" relative="1" as="geometry">
            <mxPoint x="375" y="790" as="sourcePoint" />
            <mxPoint x="410" y="580" as="targetPoint" />
            <Array as="points">
              <mxPoint x="400" y="665" />
            </Array>
          </mxGeometry>
        </mxCell>
        <mxCell id="PLVyx06QW_ByIb6izQH0-158" value="&amp;nbsp;" style="rhombus;whiteSpace=wrap;html=1;strokeColor=#E07A5F;fontColor=#393C56;fillColor=none;" parent="1" vertex="1">
          <mxGeometry x="211.25" y="710" width="167.5" height="140" as="geometry" />
        </mxCell>
        <mxCell id="PLVyx06QW_ByIb6izQH0-161" value="" style="rounded=0;whiteSpace=wrap;html=1;fillColor=none;" parent="1" vertex="1">
          <mxGeometry x="235" y="885" width="210" height="190" as="geometry" />
        </mxCell>
        <mxCell id="PLVyx06QW_ByIb6izQH0-162" value="" style="fontSize=12;html=1;endArrow=ERone;endFill=0;rounded=0;strokeColor=#E07A5F;fontColor=#393C56;fillColor=#F2CC8F;exitX=0.5;exitY=0;exitDx=0;exitDy=0;entryX=0.663;entryY=0.992;entryDx=0;entryDy=0;entryPerimeter=0;" parent="1" source="PLVyx06QW_ByIb6izQH0-135" target="PLVyx06QW_ByIb6izQH0-33" edge="1">
          <mxGeometry width="100" height="100" relative="1" as="geometry">
            <mxPoint x="280" y="490" as="sourcePoint" />
            <mxPoint x="240" y="440" as="targetPoint" />
          </mxGeometry>
        </mxCell>
        <mxCell id="PLVyx06QW_ByIb6izQH0-163" value="" style="endArrow=none;html=1;rounded=0;strokeColor=#E07A5F;fontColor=#393C56;fillColor=#F2CC8F;endFill=0;startArrow=ERzeroToOne;startFill=0;exitX=0.311;exitY=0.01;exitDx=0;exitDy=0;exitPerimeter=0;" parent="1" source="PLVyx06QW_ByIb6izQH0-55" target="PLVyx06QW_ByIb6izQH0-134" edge="1">
          <mxGeometry width="50" height="50" relative="1" as="geometry">
            <mxPoint x="65.33" y="572.438" as="sourcePoint" />
            <mxPoint x="64.68000000000002" y="519.9999999999999" as="targetPoint" />
          </mxGeometry>
        </mxCell>
        <mxCell id="PLVyx06QW_ByIb6izQH0-155" value="" style="fontSize=12;html=1;endArrow=ERzeroToMany;rounded=0;strokeColor=#E07A5F;fontColor=#393C56;fillColor=#F2CC8F;endFill=0;exitX=1;exitY=0.5;exitDx=0;exitDy=0;entryX=0.003;entryY=0.797;entryDx=0;entryDy=0;entryPerimeter=0;" parent="1" source="PLVyx06QW_ByIb6izQH0-118" target="PLVyx06QW_ByIb6izQH0-76" edge="1">
          <mxGeometry width="100" height="100" relative="1" as="geometry">
            <mxPoint x="425" y="260" as="sourcePoint" />
            <mxPoint x="660" y="140" as="targetPoint" />
          </mxGeometry>
        </mxCell>
        <mxCell id="j04PGlRHdlmmWgpmX5px-1" value="installment_payment" style="swimlane;html=1;fontStyle=0;childLayout=stackLayout;horizontal=1;startSize=26;horizontalStack=0;resizeParent=1;resizeLast=0;collapsible=1;marginBottom=0;swimlaneFillColor=#ffffff;align=center;rounded=0;shadow=0;comic=0;labelBackgroundColor=none;strokeWidth=1;fontFamily=Verdana;fontSize=14;fillColor=#F2CC8F;strokeColor=#E07A5F;fontColor=#393C56;" parent="1" vertex="1">
          <mxGeometry x="631.88" y="848" width="208.75" height="116" as="geometry" />
        </mxCell>
        <mxCell id="j04PGlRHdlmmWgpmX5px-2" value="installment_payment_ID" style="shape=partialRectangle;top=0;left=0;right=0;bottom=0;html=1;align=center;verticalAlign=middle;fillColor=none;spacingLeft=60;spacingRight=4;whiteSpace=wrap;overflow=hidden;rotatable=0;points=[[0,0.5],[1,0.5]];portConstraint=eastwest;dropTarget=0;fontStyle=5;labelBackgroundColor=none;strokeColor=#E07A5F;fontColor=#393C56;" parent="j04PGlRHdlmmWgpmX5px-1" vertex="1">
          <mxGeometry y="26" width="208.75" height="30" as="geometry" />
        </mxCell>
        <mxCell id="j04PGlRHdlmmWgpmX5px-3" value="PK" style="shape=partialRectangle;fontStyle=1;top=0;left=0;bottom=0;html=1;fillColor=none;align=center;verticalAlign=middle;spacingLeft=4;spacingRight=4;whiteSpace=wrap;overflow=hidden;rotatable=0;points=[];portConstraint=eastwest;part=1;labelBackgroundColor=none;strokeColor=#E07A5F;fontColor=#393C56;" parent="j04PGlRHdlmmWgpmX5px-2" vertex="1" connectable="0">
          <mxGeometry width="30" height="30" as="geometry" />
        </mxCell>
        <mxCell id="j04PGlRHdlmmWgpmX5px-4" value="" style="edgeStyle=none;orthogonalLoop=1;jettySize=auto;html=1;rounded=0;endArrow=none;endFill=0;labelBackgroundColor=none;fontColor=default;strokeColor=#E07A5F;entryX=1;entryY=0.025;entryDx=0;entryDy=0;entryPerimeter=0;" parent="j04PGlRHdlmmWgpmX5px-1" target="j04PGlRHdlmmWgpmX5px-5" edge="1">
          <mxGeometry width="80" relative="1" as="geometry">
            <mxPoint y="55.23000000000002" as="sourcePoint" />
            <mxPoint x="260" y="55.23000000000002" as="targetPoint" />
            <Array as="points" />
          </mxGeometry>
        </mxCell>
        <mxCell id="j04PGlRHdlmmWgpmX5px-5" value="installment_ID" style="shape=partialRectangle;top=0;left=0;right=0;bottom=1;html=1;align=left;verticalAlign=middle;fillColor=none;spacingLeft=60;spacingRight=4;whiteSpace=wrap;overflow=hidden;rotatable=0;points=[[0,0.5],[1,0.5]];portConstraint=eastwest;dropTarget=0;fontStyle=1;labelBackgroundColor=none;strokeColor=#E07A5F;fontColor=#393C56;" parent="j04PGlRHdlmmWgpmX5px-1" vertex="1">
          <mxGeometry y="56" width="208.75" height="30" as="geometry" />
        </mxCell>
        <mxCell id="j04PGlRHdlmmWgpmX5px-6" value="FK" style="shape=partialRectangle;fontStyle=1;top=0;left=0;bottom=0;html=1;fillColor=none;align=left;verticalAlign=middle;spacingLeft=4;spacingRight=4;whiteSpace=wrap;overflow=hidden;rotatable=0;points=[];portConstraint=eastwest;part=1;labelBackgroundColor=none;strokeColor=#E07A5F;fontColor=#393C56;" parent="j04PGlRHdlmmWgpmX5px-5" vertex="1" connectable="0">
          <mxGeometry width="30" height="30" as="geometry" />
        </mxCell>
        <mxCell id="j04PGlRHdlmmWgpmX5px-7" value="&lt;b&gt;transaction_ID&lt;/b&gt;" style="shape=partialRectangle;top=0;left=0;right=0;bottom=1;html=1;align=left;verticalAlign=middle;fillColor=default;spacingLeft=60;spacingRight=4;whiteSpace=wrap;overflow=hidden;rotatable=0;points=[[0,0.5],[1,0.5]];portConstraint=eastwest;dropTarget=0;fontStyle=0;strokeColor=#d79b00;labelBackgroundColor=none;" parent="j04PGlRHdlmmWgpmX5px-1" vertex="1">
          <mxGeometry y="86" width="208.75" height="30" as="geometry" />
        </mxCell>
        <mxCell id="j04PGlRHdlmmWgpmX5px-8" value="FK" style="shape=partialRectangle;fontStyle=1;top=0;left=0;bottom=0;html=1;fillColor=none;align=left;verticalAlign=middle;spacingLeft=4;spacingRight=4;whiteSpace=wrap;overflow=hidden;rotatable=0;points=[];portConstraint=eastwest;part=1;labelBackgroundColor=none;strokeColor=#E07A5F;fontColor=#393C56;" parent="j04PGlRHdlmmWgpmX5px-7" vertex="1" connectable="0">
          <mxGeometry width="30" height="30" as="geometry" />
        </mxCell>
        <mxCell id="j04PGlRHdlmmWgpmX5px-22" value="payment" style="rhombus;whiteSpace=wrap;html=1;labelBackgroundColor=none;fillColor=#F2CC8F;strokeColor=#E07A5F;fontColor=#393C56;" parent="1" vertex="1">
          <mxGeometry x="671.25" y="661" width="130" height="130" as="geometry" />
        </mxCell>
        <mxCell id="j04PGlRHdlmmWgpmX5px-23" value="" style="endArrow=none;html=1;rounded=0;labelBackgroundColor=none;fontColor=default;strokeColor=#E07A5F;startArrow=ERoneToMany;startFill=0;entryX=1;entryY=0.5;entryDx=0;entryDy=0;exitX=0.816;exitY=0;exitDx=0;exitDy=0;exitPerimeter=0;" parent="1" source="j04PGlRHdlmmWgpmX5px-1" target="j04PGlRHdlmmWgpmX5px-27" edge="1">
          <mxGeometry width="50" height="50" relative="1" as="geometry">
            <mxPoint x="811" y="850" as="sourcePoint" />
            <mxPoint x="680" y="890" as="targetPoint" />
          </mxGeometry>
        </mxCell>
        <mxCell id="j04PGlRHdlmmWgpmX5px-24" value="" style="endArrow=none;html=1;rounded=0;labelBackgroundColor=none;fontColor=default;strokeColor=#E07A5F;startArrow=ERone;startFill=0;entryX=0;entryY=0.5;entryDx=0;entryDy=0;exitX=1;exitY=0.794;exitDx=0;exitDy=0;exitPerimeter=0;" parent="1" source="PLVyx06QW_ByIb6izQH0-105" target="j04PGlRHdlmmWgpmX5px-27" edge="1">
          <mxGeometry width="50" height="50" relative="1" as="geometry">
            <mxPoint x="610" y="727" as="sourcePoint" />
            <mxPoint x="740" y="724.9" as="targetPoint" />
          </mxGeometry>
        </mxCell>
        <mxCell id="j04PGlRHdlmmWgpmX5px-27" value="&amp;nbsp;" style="rhombus;whiteSpace=wrap;html=1;strokeColor=#E07A5F;fontColor=#393C56;fillColor=none;" parent="1" vertex="1">
          <mxGeometry x="661.25" y="650" width="150" height="152" as="geometry" />
        </mxCell>
        <mxCell id="j04PGlRHdlmmWgpmX5px-32" value="&amp;nbsp;" style="rhombus;whiteSpace=wrap;html=1;strokeColor=#E07A5F;fontColor=#393C56;fillColor=none;" parent="1" vertex="1">
          <mxGeometry x="457.81" y="942.5" width="152.19" height="147.5" as="geometry" />
        </mxCell>
        <mxCell id="j04PGlRHdlmmWgpmX5px-33" value="payment" style="rhombus;whiteSpace=wrap;html=1;labelBackgroundColor=none;fillColor=#F2CC8F;strokeColor=#E07A5F;fontColor=#393C56;" parent="1" vertex="1">
          <mxGeometry x="469.99" y="950" width="130" height="130" as="geometry" />
        </mxCell>
        <mxCell id="j04PGlRHdlmmWgpmX5px-34" value="" style="endArrow=none;html=1;rounded=0;labelBackgroundColor=none;fontColor=default;strokeColor=#E07A5F;startArrow=ERone;startFill=0;exitX=0.999;exitY=0.179;exitDx=0;exitDy=0;exitPerimeter=0;entryX=0.504;entryY=0.019;entryDx=0;entryDy=0;entryPerimeter=0;" parent="1" source="PLVyx06QW_ByIb6izQH0-161" edge="1">
          <mxGeometry width="50" height="50" relative="1" as="geometry">
            <mxPoint x="400" y="918.53" as="sourcePoint" />
            <mxPoint x="535.5100000000001" y="951" as="targetPoint" />
            <Array as="points">
              <mxPoint x="540" y="920" />
            </Array>
          </mxGeometry>
        </mxCell>
        <mxCell id="j04PGlRHdlmmWgpmX5px-35" value="" style="endArrow=none;html=1;rounded=0;labelBackgroundColor=none;fontColor=default;strokeColor=#E07A5F;startArrow=ERone;startFill=0;entryX=0.511;entryY=1.012;entryDx=0;entryDy=0;entryPerimeter=0;edgeStyle=elbowEdgeStyle;exitX=0.276;exitY=1.012;exitDx=0;exitDy=0;exitPerimeter=0;" parent="1" edge="1" source="RsEZB-feb7P69k5d9XAQ-6">
          <mxGeometry width="50" height="50" relative="1" as="geometry">
            <mxPoint x="678.87" y="1040" as="sourcePoint" />
            <mxPoint x="533.7390899999999" y="1090.0000000000002" as="targetPoint" />
            <Array as="points">
              <mxPoint x="690" y="1070" />
            </Array>
          </mxGeometry>
        </mxCell>
        <mxCell id="RsEZB-feb7P69k5d9XAQ-6" value="" style="rounded=0;whiteSpace=wrap;html=1;fillColor=none;" parent="1" vertex="1">
          <mxGeometry x="630" y="850" width="220" height="130" as="geometry" />
        </mxCell>
      </root>
    </mxGraphModel>
  </diagram>
</mxfile>
